<?xml version="1.0" encoding="utf-8"?>
<!-- Generator: Adobe Illustrator 28.0.0, SVG Export Plug-In . SVG Version: 6.00 Build 0)  -->
<svg version="1.1" id="Layer_1" xmlns="http://www.w3.org/2000/svg" xmlns:xlink="http://www.w3.org/1999/xlink" x="0px" y="0px"
	 viewBox="0 0 244.73 56.45" style="enable-background:new 0 0 244.73 56.45;" xml:space="preserve">
<g>
	<path d="M41.11,52.92c-5.54,2.16-10.58,3.31-14.48,3.31C11.15,56.24,0,44.72,0,28.73C0,12.46,10.37,0.79,24.92,0.79
		c8.02,0,13.56,2.66,19.31,9.36c0.99,1.15,1.49,1.8,2.91,2.52c-2.84,4.32-4.76,6.26-8.45,8.64c0-9.07-5.18-14.76-13.49-14.76
		c-9.44,0-16.05,9.07-16.05,22.18c0,12.82,6.89,21.03,17.75,21.03c6.89,0,13.77-2.59,19.03-7.13c0,3.02-0.28,5.9-0.78,8.57
		C44.09,51.48,42.6,52.35,41.11,52.92z"/>
	<path d="M85.91,37.01c0,11.52-6.82,19.15-17.11,19.15c-10.22,0-17.11-7.7-17.11-19.15c0-11.38,6.89-19.08,17.11-19.08
		S85.91,25.56,85.91,37.01z M76.89,37.01c0-8.35-3.05-13.47-8.09-13.47c-4.97,0-7.95,5.04-7.95,13.47c0,8.57,2.91,13.54,7.95,13.54
		C73.91,50.55,76.89,45.51,76.89,37.01z"/>
	<path d="M124.39,37.01c0,11.52-6.82,19.15-17.11,19.15c-10.22,0-17.11-7.7-17.11-19.15c0-11.38,6.89-19.08,17.11-19.08
		S124.39,25.56,124.39,37.01z M115.37,37.01c0-8.35-3.05-13.47-8.09-13.47c-4.97,0-7.95,5.04-7.95,13.47
		c0,8.57,2.91,13.54,7.95,13.54C112.39,50.55,115.37,45.51,115.37,37.01z"/>
	<path d="M140.58,46.8c0,2.09,1.07,3.1,3.41,3.1c0.64,0,1.49-0.07,2.34-0.22l-1.42,5.62c-1.77,0.79-3.83,1.15-6.32,1.15
		c-4.54,0-7.31-3.6-7.31-9.5V7.27c0-2.66-0.35-3.89-1.49-4.68v-0.5c2.34-0.79,7.17-1.73,11.64-2.09c-0.57,0.94-0.85,2.23-0.85,4.32
		V46.8z"/>
	<path d="M159.46,43.71c0,3.89,1.92,6.12,5.25,6.12c2.7,0,6.39-1.73,9.51-4.54v-19.3c0-2.66-0.36-3.89-1.49-4.68v-0.5
		c2.34-0.79,6.96-1.73,11.43-2.02c-0.64,0.94-0.85,2.16-0.85,4.25v30.31c-3.05,1.08-5.25,1.8-9.09,2.81v-6.12
		c-3.98,3.82-8.8,6.12-13.21,6.12c-6.75,0-10.79-4.1-10.79-10.87V26.07c0-2.52-0.43-3.82-1.63-4.68v-0.5
		c2.34-0.79,7.24-1.73,11.72-2.02c-0.64,0.94-0.85,2.16-0.85,4.25V43.71z"/>
	<path d="M192.76,26.86c0-2.66-0.35-3.89-1.49-4.68v-0.5c2.34-0.79,7.1-1.73,11.57-2.09c-0.57,0.94-0.85,2.23-0.85,4.32v29.45
		c-2.98,1.08-5.25,1.8-9.23,2.81V26.86z M192.54,6.26c-0.07-0.79-0.57-2.09-0.99-2.66c3.48-0.79,6.39-1.3,10.37-1.94v10.37
		c-2.84,0.79-5.68,1.44-8.59,2.02L192.54,6.26z"/>
	<path d="M226.13,18c3.34,0,6.18,0.94,8.66,2.52V7.27c0-2.74-0.43-3.89-1.63-4.68v-0.5c2.49-0.79,7.1-1.73,11.57-2.09
		c-0.57,0.94-0.85,2.23-0.85,4.32v49.04c-2.98,1.01-6.03,2.02-9.09,2.81v-5.98c-3.83,3.82-8.24,6.05-12.21,5.9
		c-7.88-0.29-13.42-7.7-13.42-17.93C209.16,28.08,215.05,18,226.13,18z M234.79,45.65V32.76c-0.21-4.39-1.56-9.29-6.89-9.29
		c-7.74,0-9.44,7.92-9.44,14.26c0,7.63,3.05,12.24,8.02,12.24C229.32,49.97,232.23,48.39,234.79,45.65z"/>
</g>
</svg>
